<svg id="Layer_1" data-name="Layer 1" xmlns="http://www.w3.org/2000/svg" xmlns:xlink="http://www.w3.org/1999/xlink"
     viewBox="0 0 1024 256">
    <defs>
        <style>
            .cls-1{fill:url(#linear-gradient);}.cls-2{fill:url(#linear-gradient-2);}.cls-3{fill:url(#linear-gradient-3);}.cls-4{fill:url(#linear-gradient-4);}.cls-5{fill:url(#linear-gradient-5);}.cls-6{fill:url(#linear-gradient-6);}.cls-7{fill:url(#linear-gradient-7);}
        </style>
        <linearGradient id="linear-gradient" x1="102.81" y1="35.85" x2="102.81" y2="206.18"
                        gradientUnits="userSpaceOnUse">
            <stop offset="0" stop-color="#1d3d70"/>
            <stop offset="1" stop-color="#10213d"/>
        </linearGradient>
        <linearGradient id="linear-gradient-2" x1="224.95" y1="35.85" x2="224.95" y2="206.18"
                        xlink:href="#linear-gradient"/>
        <linearGradient id="linear-gradient-3" x1="370.32" y1="35.85" x2="370.32" y2="206.18"
                        xlink:href="#linear-gradient"/>
        <linearGradient id="linear-gradient-4" x1="466.26" y1="35.85" x2="466.26" y2="206.18"
                        xlink:href="#linear-gradient"/>
        <linearGradient id="linear-gradient-5" x1="569.79" y1="35.85" x2="569.79" y2="206.18"
                        xlink:href="#linear-gradient"/>
        <linearGradient id="linear-gradient-6" x1="736.34" y1="35.85" x2="736.34" y2="206.18"
                        xlink:href="#linear-gradient"/>
        <linearGradient id="linear-gradient-7" x1="897.14" y1="35.85" x2="897.14" y2="206.18"
                        xlink:href="#linear-gradient"/>
    </defs>
    <title>Logo</title>
    <path class="cls-1"
          d="M120.83,80H150l-47.85,66,46.47,71.5h-28L80.68,155.61c-.28-.83-.83-1.1-1.1-1.1s-.55.27-.55.82v62.15H55.65V24.71H79V136.63c0,.55.27.83.55.83s.55-.55,1.1-1.38Z"/>
    <path class="cls-2"
          d="M284.9,217.48H262.35V207.31a60.86,60.86,0,0,1-37.13,12.37c-31.89,0-60.22-25.57-60.22-56.92V80.26h23.38v79.2c0,19.52,17,36.57,36.57,36.57,19,0,36.57-7.7,36.57-35.2V80.26H284.9Z"/>
    <path class="cls-3"
          d="M310.38,80h23.37v9.63c10.17-8,22.27-11.83,36.3-11.83,31.9,0,60.22,25,60.22,56.38v83.32H406.9v-80c0-19.53-17-36.58-36.58-36.58-19,0-36.57,7.7-36.57,35.2v81.4H310.38Z"/>
    <path class="cls-4" d="M454.57,25.26H478V217.48H454.57Z"/>
    <path class="cls-5"
          d="M617.37,79.71h23.37V217.48H617.37V201.53c-12.93,11.28-28.88,18.15-47.3,18.15a71,71,0,1,1,0-141.9c18.42,0,34.37,6.88,47.3,18.15ZM570.07,196c26.4,0,47.3-20.9,47.3-47.57a47,47,0,0,0-47.3-47.3c-26.68,0-47.58,20.9-47.58,47.3A47.07,47.07,0,0,0,570.07,196Z"/>
    <path class="cls-6"
          d="M665.39,217.48V24.71h23.38V95.93a69.75,69.75,0,0,1,47.3-18.15,71,71,0,1,1,0,141.9,69.7,69.7,0,0,1-47.3-18.15v15.95Zm70.68-116.32a47,47,0,0,0-47.3,47.3c0,26.67,20.9,47.57,47.3,47.57a47.07,47.07,0,0,0,47.57-47.57C783.64,122.06,762.74,101.16,736.07,101.16Z"/>
    <path class="cls-7"
          d="M897.41,77.78a71,71,0,1,1-71.22,70.68A70.66,70.66,0,0,1,897.41,77.78Zm1,118.25c26.4,0,47.3-20.9,47.3-47.57a47,47,0,0,0-47.3-47.3c-26.67,0-47.57,20.9-47.57,47.3A47.07,47.07,0,0,0,898.41,196Z"/>
</svg>